Coordinates
version=1
nRows=6
nColumns=36
inDegrees=yes

Units are S.I. units (second, meters, Newtons, ...)
If the header above contains a line with 'inDegrees', this indicates whether rotational values are in degrees (yes) or radians (no).

endheader
time	pelvis_tilt	pelvis_list	pelvis_rotation	pelvis_tx	pelvis_ty	pelvis_tz	hip_flexion_r	hip_adduction_r	hip_rotation_r	knee_angle_r	knee_angle_r_beta	ankle_angle_r	subtalar_angle_r	mtp_angle_r	hip_flexion_l	hip_adduction_l	hip_rotation_l	knee_angle_l	knee_angle_l_beta	ankle_angle_l	subtalar_angle_l	mtp_angle_l	lumbar_extension	lumbar_bending	lumbar_rotation	arm_flex_r	arm_add_r	arm_rot_r	elbow_flex_r	pro_sup_r	arm_flex_l	arm_add_l	arm_rot_l	elbow_flex_l	pro_sup_l
      6.58333330	     -3.78457201	      1.08214421	     -2.09946210	      1.18821246	      0.92960225	      0.17585751	     23.77080501	      6.50375774	      4.29483801	     34.42680126	      0.60086103	     18.47367358	      0.15912345	     -7.49999987	     43.07227826	     -9.28399412	     -5.30903561	     27.06505736	      0.47237436	     -1.84639984	     -1.68614158	     -7.49999987	    -11.07244962	      3.90691174	      3.35258386	     58.40029436	     -4.19794135	     67.90893510	    127.29279369	     86.75174201	     60.54292427	    -11.28599475	     52.73083348	    124.73829831	    100.35828892
      6.60000000	     -3.98598760	      0.91749656	     -1.85008216	      1.18833321	      0.92055212	      0.17613458	     24.95031969	      6.71943900	      3.75706782	     36.30218914	      0.63359273	     19.13664594	      0.22762521	     -7.49999987	     44.30543255	     -9.59860513	     -4.72541029	     27.46622615	      0.47937608	     -2.09807596	     -2.42296641	     -7.49999987	    -11.21087950	      3.98448753	      3.95507567	     58.32177437	     -5.42169662	     67.12789369	    126.21630614	     89.28654095	     61.05945525	    -10.49531317	     54.59355083	    125.24080574	    102.02594015
      6.61666670	     -4.10004050	      0.91392960	     -1.69207691	      1.18833243	      0.91675837	      0.17622592	     26.04737159	      6.87249219	      3.43993943	     38.28096102	      0.66812881	     19.84095463	      0.20082468	     -7.49999987	     45.43930510	     -9.80018930	     -4.29374907	     28.09415722	      0.49033554	     -1.94871477	     -3.21831773	     -7.49999987	    -11.46454900	      3.91521970	      4.15410501	     58.55936697	     -5.67165671	     66.96805182	    125.15112714	     89.30283371	     61.60070881	    -10.35691645	     55.85620996	    125.78911891	    102.08669657
      6.63333330	     -4.16415780	      0.91959410	     -1.49404926	      1.18341747	      0.90943251	      0.17927030	     27.26690032	      7.10286075	      3.15859710	     40.51571975	      0.70713271	     20.54673262	     -0.15345147	     -7.49999987	     46.50064069	     -9.99802959	     -3.84590571	     28.77212141	      0.50216825	     -1.98242212	     -3.94331855	     -7.49999987	    -11.80981889	      3.70227953	      3.88455750	     59.37493474	     -6.08973801	     67.16807201	    126.19472359	     89.10320076	     62.20395917	    -11.40329189	     55.08580356	    124.25072143	    101.85835054
      6.65000000	     -3.98333538	      0.84411306	     -1.38951518	      1.18319035	      0.90831440	      0.17873114	     27.99174471	      7.41636939	      3.10975369	     42.25449264	      0.73748002	     21.27968303	     -0.83216236	     -7.49999987	     47.06916645	    -10.20460622	     -3.69336747	     29.23238763	      0.51020141	     -2.40290259	     -4.44280580	     -7.49999987	    -12.70063368	      3.75411693	      4.39486859	     60.08529363	     -6.62768239	     66.95527384	    124.90279040	     89.11205082	     62.53740519	    -11.15387589	     55.55121592	    124.28485087	    101.88923638
      6.66666670	     -4.14349040	      0.73527968	     -1.37236260	      1.17248027	      0.89581533	      0.17767236	     29.78053292	      7.72721644	      2.85326686	     44.70428176	      0.78023691	     21.89104837	     -1.23303039	     -7.49999987	     48.65066467	    -10.46657401	     -3.00796859	     30.26042586	      0.52814406	     -2.93507655	     -5.69603431	     -7.49999987	    -13.29664025	      3.91161762	      4.85860412	     61.92507835	     -6.53177195	     66.36832990	    123.90522843	     88.47172345	     64.45950133	    -10.55302914	     55.82464799	    124.01552163	    100.94391803
